<svg width="14" height="14" viewBox="0 0 14 14" fill="none" xmlns="http://www.w3.org/2000/svg">
<g clip-path="url(#clip0_139_63)">
<path d="M9.17475 2.26559C10.0115 1.42566 11.2353 1.40802 11.9129 2.08817C12.5916 2.7696 12.5734 4.00116 11.7361 4.84167L10.3222 6.26104C10.1517 6.43225 10.1522 6.70927 10.3234 6.87978C10.4946 7.05029 10.7716 7.04977 10.9421 6.87856L12.356 5.45919C13.4709 4.33994 13.6109 2.553 12.5328 1.47065C11.4533 0.387021 9.67035 0.528253 8.55485 1.64808L5.72706 4.48684C4.61214 5.60609 4.47217 7.39306 5.55032 8.47537C5.72084 8.64658 5.99786 8.64711 6.16901 8.4766C6.34022 8.30609 6.34075 8.02907 6.17024 7.85786C5.49144 7.17647 5.50972 5.94487 6.34699 5.10436L9.17475 2.26559Z" fill="#1C274C"/>
<path d="M8.44976 5.52462C8.27925 5.35343 8.00223 5.35289 7.83102 5.52341C7.65987 5.69394 7.65935 5.97096 7.82986 6.14211C8.50862 6.82356 8.49036 8.05509 7.65311 8.89562L4.82533 11.7344C3.98863 12.5743 2.76475 12.592 2.08724 11.9119C1.40843 11.2304 1.42672 9.99882 2.26397 9.15829L3.67788 7.73892C3.84841 7.56772 3.84787 7.29075 3.67669 7.12018C3.5055 6.94967 3.22849 6.9502 3.05797 7.12141L1.64406 8.54077C0.529133 9.66007 0.389156 11.447 1.46732 12.5294C2.54676 13.613 4.32974 13.4717 5.44524 12.3519L8.27301 9.51313C9.38794 8.39389 9.52794 6.60697 8.44976 5.52462Z" fill="#1C274C"/>
</g>
<defs>
<clipPath id="clip0_139_63">
<rect width="14" height="14" fill="white"/>
</clipPath>
</defs>
</svg>
